%TF.GenerationSoftware,KiCad,Pcbnew,5.1.9+dfsg1-1+deb11u1*%
%TF.CreationDate,2024-05-04T00:08:04-07:00*%
%TF.ProjectId,BBpower,4242706f-7765-4722-9e6b-696361645f70,rev?*%
%TF.SameCoordinates,Original*%
%TF.FileFunction,Copper,L1,Top*%
%TF.FilePolarity,Positive*%
%FSLAX46Y46*%
G04 Gerber Fmt 4.6, Leading zero omitted, Abs format (unit mm)*
G04 Created by KiCad (PCBNEW 5.1.9+dfsg1-1+deb11u1) date 2024-05-04 00:08:04*
%MOMM*%
%LPD*%
G01*
G04 APERTURE LIST*
%TA.AperFunction,ComponentPad*%
%ADD10O,1.700000X1.700000*%
%TD*%
%TA.AperFunction,ComponentPad*%
%ADD11R,1.700000X1.700000*%
%TD*%
%TA.AperFunction,ComponentPad*%
%ADD12O,3.600000X2.080000*%
%TD*%
%TA.AperFunction,Conductor*%
%ADD13C,0.381000*%
%TD*%
%TA.AperFunction,Conductor*%
%ADD14C,1.270000*%
%TD*%
%TA.AperFunction,Conductor*%
%ADD15C,2.032000*%
%TD*%
%TA.AperFunction,Conductor*%
%ADD16C,0.635000*%
%TD*%
G04 APERTURE END LIST*
D10*
%TO.P,J7,2*%
%TO.N,Net-(D1-Pad1)*%
X175260000Y-139700000D03*
D11*
%TO.P,J7,1*%
X175260000Y-142240000D03*
%TD*%
%TO.P,J6,1*%
%TO.N,Net-(J6-Pad1)*%
%TA.AperFunction,ComponentPad*%
G36*
G01*
X178435000Y-137337800D02*
X178435000Y-134442200D01*
G75*
G02*
X178892200Y-133985000I457200J0D01*
G01*
X181787800Y-133985000D01*
G75*
G02*
X182245000Y-134442200I0J-457200D01*
G01*
X182245000Y-137337800D01*
G75*
G02*
X181787800Y-137795000I-457200J0D01*
G01*
X178892200Y-137795000D01*
G75*
G02*
X178435000Y-137337800I0J457200D01*
G01*
G37*
%TD.AperFunction*%
%TD*%
%TO.P,J5,1*%
%TO.N,Net-(J5-Pad1)*%
%TA.AperFunction,ComponentPad*%
G36*
G01*
X178435000Y-114477800D02*
X178435000Y-111582200D01*
G75*
G02*
X178892200Y-111125000I457200J0D01*
G01*
X181787800Y-111125000D01*
G75*
G02*
X182245000Y-111582200I0J-457200D01*
G01*
X182245000Y-114477800D01*
G75*
G02*
X181787800Y-114935000I-457200J0D01*
G01*
X178892200Y-114935000D01*
G75*
G02*
X178435000Y-114477800I0J457200D01*
G01*
G37*
%TD.AperFunction*%
%TD*%
%TO.P,R1,2*%
%TO.N,Net-(D1-Pad2)*%
%TA.AperFunction,SMDPad,CuDef*%
G36*
G01*
X182430000Y-99873750D02*
X182430000Y-100786250D01*
G75*
G02*
X182186250Y-101030000I-243750J0D01*
G01*
X181698750Y-101030000D01*
G75*
G02*
X181455000Y-100786250I0J243750D01*
G01*
X181455000Y-99873750D01*
G75*
G02*
X181698750Y-99630000I243750J0D01*
G01*
X182186250Y-99630000D01*
G75*
G02*
X182430000Y-99873750I0J-243750D01*
G01*
G37*
%TD.AperFunction*%
%TO.P,R1,1*%
%TO.N,Net-(J2-Pad2)*%
%TA.AperFunction,SMDPad,CuDef*%
G36*
G01*
X184305000Y-99873750D02*
X184305000Y-100786250D01*
G75*
G02*
X184061250Y-101030000I-243750J0D01*
G01*
X183573750Y-101030000D01*
G75*
G02*
X183330000Y-100786250I0J243750D01*
G01*
X183330000Y-99873750D01*
G75*
G02*
X183573750Y-99630000I243750J0D01*
G01*
X184061250Y-99630000D01*
G75*
G02*
X184305000Y-99873750I0J-243750D01*
G01*
G37*
%TD.AperFunction*%
%TD*%
D10*
%TO.P,J4,8*%
%TO.N,Net-(J1-Pad4)*%
X185420000Y-139700000D03*
%TO.P,J4,7*%
%TO.N,Net-(D1-Pad1)*%
X185420000Y-142240000D03*
%TO.P,J4,6*%
%TO.N,Net-(J1-Pad4)*%
X182880000Y-139700000D03*
%TO.P,J4,5*%
%TO.N,Net-(D1-Pad1)*%
X182880000Y-142240000D03*
%TO.P,J4,4*%
%TO.N,Net-(J1-Pad4)*%
X180340000Y-139700000D03*
%TO.P,J4,3*%
%TO.N,Net-(D1-Pad1)*%
X180340000Y-142240000D03*
%TO.P,J4,2*%
%TO.N,Net-(J1-Pad4)*%
X177800000Y-139700000D03*
D11*
%TO.P,J4,1*%
%TO.N,Net-(D1-Pad1)*%
X177800000Y-142240000D03*
%TD*%
D10*
%TO.P,J3,8*%
%TO.N,Net-(J2-Pad2)*%
X185420000Y-93980000D03*
%TO.P,J3,7*%
%TO.N,Net-(D1-Pad1)*%
X185420000Y-96520000D03*
%TO.P,J3,6*%
%TO.N,Net-(J2-Pad2)*%
X182880000Y-93980000D03*
%TO.P,J3,5*%
%TO.N,Net-(D1-Pad1)*%
X182880000Y-96520000D03*
%TO.P,J3,4*%
%TO.N,Net-(J2-Pad2)*%
X180340000Y-93980000D03*
%TO.P,J3,3*%
%TO.N,Net-(D1-Pad1)*%
X180340000Y-96520000D03*
%TO.P,J3,2*%
%TO.N,Net-(J2-Pad2)*%
X177800000Y-93980000D03*
D11*
%TO.P,J3,1*%
%TO.N,Net-(D1-Pad1)*%
X177800000Y-96520000D03*
%TD*%
D10*
%TO.P,J2,3*%
%TO.N,Net-(J1-Pad1)*%
X182880000Y-104140000D03*
%TO.P,J2,2*%
%TO.N,Net-(J2-Pad2)*%
X180340000Y-104140000D03*
D11*
%TO.P,J2,1*%
%TO.N,Net-(J1-Pad4)*%
X177800000Y-104140000D03*
%TD*%
D12*
%TO.P,J1,4*%
%TO.N,Net-(J1-Pad4)*%
X185420000Y-132080000D03*
%TO.P,J1,3*%
%TO.N,Net-(D1-Pad1)*%
X185420000Y-127000000D03*
%TO.P,J1,2*%
X185420000Y-121920000D03*
%TO.P,J1,1*%
%TO.N,Net-(J1-Pad1)*%
%TA.AperFunction,ComponentPad*%
G36*
G01*
X183869999Y-115800000D02*
X186970001Y-115800000D01*
G75*
G02*
X187220000Y-116049999I0J-249999D01*
G01*
X187220000Y-117630001D01*
G75*
G02*
X186970001Y-117880000I-249999J0D01*
G01*
X183869999Y-117880000D01*
G75*
G02*
X183620000Y-117630001I0J249999D01*
G01*
X183620000Y-116049999D01*
G75*
G02*
X183869999Y-115800000I249999J0D01*
G01*
G37*
%TD.AperFunction*%
%TD*%
%TO.P,D1,2*%
%TO.N,Net-(D1-Pad2)*%
%TA.AperFunction,SMDPad,CuDef*%
G36*
G01*
X178582500Y-100786250D02*
X178582500Y-99873750D01*
G75*
G02*
X178826250Y-99630000I243750J0D01*
G01*
X179313750Y-99630000D01*
G75*
G02*
X179557500Y-99873750I0J-243750D01*
G01*
X179557500Y-100786250D01*
G75*
G02*
X179313750Y-101030000I-243750J0D01*
G01*
X178826250Y-101030000D01*
G75*
G02*
X178582500Y-100786250I0J243750D01*
G01*
G37*
%TD.AperFunction*%
%TO.P,D1,1*%
%TO.N,Net-(D1-Pad1)*%
%TA.AperFunction,SMDPad,CuDef*%
G36*
G01*
X176707500Y-100786250D02*
X176707500Y-99873750D01*
G75*
G02*
X176951250Y-99630000I243750J0D01*
G01*
X177438750Y-99630000D01*
G75*
G02*
X177682500Y-99873750I0J-243750D01*
G01*
X177682500Y-100786250D01*
G75*
G02*
X177438750Y-101030000I-243750J0D01*
G01*
X176951250Y-101030000D01*
G75*
G02*
X176707500Y-100786250I0J243750D01*
G01*
G37*
%TD.AperFunction*%
%TD*%
D13*
%TO.N,Net-(D1-Pad2)*%
X181942500Y-100330000D02*
X179070000Y-100330000D01*
D14*
%TO.N,Net-(D1-Pad1)*%
X185420000Y-96520000D02*
X172720000Y-96520000D01*
D13*
X177165000Y-97155000D02*
X177800000Y-96520000D01*
X177165000Y-100300000D02*
X177165000Y-97155000D01*
X177195000Y-100330000D02*
X177165000Y-100300000D01*
D15*
X172720000Y-121720000D02*
X172720000Y-124460000D01*
X172720000Y-96520000D02*
X172720000Y-121720000D01*
X172720000Y-124460000D02*
X172720000Y-126720000D01*
X173000000Y-127000000D02*
X172720000Y-126720000D01*
X185420000Y-127000000D02*
X173000000Y-127000000D01*
X173000000Y-122000000D02*
X172720000Y-121720000D01*
X185340000Y-122000000D02*
X173000000Y-122000000D01*
X185420000Y-121920000D02*
X185340000Y-122000000D01*
X185420000Y-121920000D02*
X185420000Y-127000000D01*
D14*
X175260000Y-139700000D02*
X172720000Y-139700000D01*
D15*
X172720000Y-139700000D02*
X172720000Y-142240000D01*
X172720000Y-126720000D02*
X172720000Y-139700000D01*
D14*
X185420000Y-142240000D02*
X172720000Y-142240000D01*
D15*
%TO.N,Net-(J1-Pad4)*%
X185420000Y-132080000D02*
X185420000Y-139700000D01*
D14*
X185420000Y-139700000D02*
X177800000Y-139700000D01*
D15*
%TO.N,Net-(J1-Pad1)*%
X185420000Y-116840000D02*
X185420000Y-106680000D01*
X185420000Y-106680000D02*
X182880000Y-104140000D01*
D16*
%TO.N,Net-(J2-Pad2)*%
X180340000Y-102235000D02*
X180340000Y-104140000D01*
D13*
X180975000Y-101600000D02*
X180340000Y-102235000D01*
X183031250Y-101600000D02*
X180975000Y-101600000D01*
X183817500Y-100813750D02*
X183031250Y-101600000D01*
X183817500Y-100330000D02*
X183817500Y-100813750D01*
D14*
X185420000Y-93980000D02*
X177800000Y-93980000D01*
%TD*%
M02*
