M48
; DRILL file {KiCad 5.1.9+dfsg1-1+deb11u1} date Sat May  4 00:07:44 2024
; FORMAT={-:-/ absolute / metric / decimal}
; #@! TF.CreationDate,2024-05-04T00:07:44-07:00
; #@! TF.GenerationSoftware,Kicad,Pcbnew,5.1.9+dfsg1-1+deb11u1
FMAT,2
METRIC
T1C1.000
T2C1.400
T3C2.032
%
G90
G05
T1
X175.26Y-139.7
X175.26Y-142.24
X177.8Y-93.98
X177.8Y-96.52
X177.8Y-104.14
X177.8Y-139.7
X177.8Y-142.24
X180.34Y-93.98
X180.34Y-96.52
X180.34Y-104.14
X180.34Y-139.7
X180.34Y-142.24
X182.88Y-93.98
X182.88Y-96.52
X182.88Y-104.14
X182.88Y-139.7
X182.88Y-142.24
X185.42Y-93.98
X185.42Y-96.52
X185.42Y-139.7
X185.42Y-142.24
T2
X185.42Y-116.84
X185.42Y-121.92
X185.42Y-127.0
X185.42Y-132.08
T3
X180.34Y-113.03
X180.34Y-135.89
T0
M30
