%TF.GenerationSoftware,KiCad,Pcbnew,5.1.9+dfsg1-1+deb11u1*%
%TF.CreationDate,2024-05-04T00:08:04-07:00*%
%TF.ProjectId,BBpower,4242706f-7765-4722-9e6b-696361645f70,rev?*%
%TF.SameCoordinates,Original*%
%TF.FileFunction,Legend,Bot*%
%TF.FilePolarity,Positive*%
%FSLAX46Y46*%
G04 Gerber Fmt 4.6, Leading zero omitted, Abs format (unit mm)*
G04 Created by KiCad (PCBNEW 5.1.9+dfsg1-1+deb11u1) date 2024-05-04 00:08:04*
%MOMM*%
%LPD*%
G01*
G04 APERTURE LIST*
%ADD10C,0.177800*%
G04 APERTURE END LIST*
D10*
X170697071Y-114427000D02*
X169554071Y-114427000D01*
X170370500Y-114808000D01*
X169554071Y-115189000D01*
X170697071Y-115189000D01*
X170697071Y-115896571D02*
X170642642Y-115787714D01*
X170588214Y-115733285D01*
X170479357Y-115678857D01*
X170152785Y-115678857D01*
X170043928Y-115733285D01*
X169989500Y-115787714D01*
X169935071Y-115896571D01*
X169935071Y-116059857D01*
X169989500Y-116168714D01*
X170043928Y-116223142D01*
X170152785Y-116277571D01*
X170479357Y-116277571D01*
X170588214Y-116223142D01*
X170642642Y-116168714D01*
X170697071Y-116059857D01*
X170697071Y-115896571D01*
X170697071Y-116767428D02*
X169554071Y-116767428D01*
X170697071Y-117257285D02*
X170098357Y-117257285D01*
X169989500Y-117202857D01*
X169935071Y-117094000D01*
X169935071Y-116930714D01*
X169989500Y-116821857D01*
X170043928Y-116767428D01*
X170697071Y-117801571D02*
X169935071Y-117801571D01*
X170152785Y-117801571D02*
X170043928Y-117856000D01*
X169989500Y-117910428D01*
X169935071Y-118019285D01*
X169935071Y-118128142D01*
X169935071Y-119380000D02*
X171078071Y-119380000D01*
X169989500Y-119380000D02*
X169935071Y-119488857D01*
X169935071Y-119706571D01*
X169989500Y-119815428D01*
X170043928Y-119869857D01*
X170152785Y-119924285D01*
X170479357Y-119924285D01*
X170588214Y-119869857D01*
X170642642Y-119815428D01*
X170697071Y-119706571D01*
X170697071Y-119488857D01*
X170642642Y-119380000D01*
X170697071Y-120577428D02*
X170642642Y-120468571D01*
X170588214Y-120414142D01*
X170479357Y-120359714D01*
X170152785Y-120359714D01*
X170043928Y-120414142D01*
X169989500Y-120468571D01*
X169935071Y-120577428D01*
X169935071Y-120740714D01*
X169989500Y-120849571D01*
X170043928Y-120904000D01*
X170152785Y-120958428D01*
X170479357Y-120958428D01*
X170588214Y-120904000D01*
X170642642Y-120849571D01*
X170697071Y-120740714D01*
X170697071Y-120577428D01*
X169935071Y-121339428D02*
X170697071Y-121557142D01*
X170152785Y-121774857D01*
X170697071Y-121992571D01*
X169935071Y-122210285D01*
X170642642Y-123081142D02*
X170697071Y-122972285D01*
X170697071Y-122754571D01*
X170642642Y-122645714D01*
X170533785Y-122591285D01*
X170098357Y-122591285D01*
X169989500Y-122645714D01*
X169935071Y-122754571D01*
X169935071Y-122972285D01*
X169989500Y-123081142D01*
X170098357Y-123135571D01*
X170207214Y-123135571D01*
X170316071Y-122591285D01*
X170697071Y-123625428D02*
X169935071Y-123625428D01*
X170152785Y-123625428D02*
X170043928Y-123679857D01*
X169989500Y-123734285D01*
X169935071Y-123843142D01*
X169935071Y-123952000D01*
X170588214Y-124333000D02*
X170642642Y-124387428D01*
X170697071Y-124333000D01*
X170642642Y-124278571D01*
X170588214Y-124333000D01*
X170697071Y-124333000D01*
X170261642Y-124333000D02*
X169608500Y-124278571D01*
X169554071Y-124333000D01*
X169608500Y-124387428D01*
X170261642Y-124333000D01*
X169554071Y-124333000D01*
M02*
