%TF.GenerationSoftware,KiCad,Pcbnew,5.1.9+dfsg1-1+deb11u1*%
%TF.CreationDate,2024-05-04T00:08:04-07:00*%
%TF.ProjectId,BBpower,4242706f-7765-4722-9e6b-696361645f70,rev?*%
%TF.SameCoordinates,Original*%
%TF.FileFunction,Soldermask,Bot*%
%TF.FilePolarity,Negative*%
%FSLAX46Y46*%
G04 Gerber Fmt 4.6, Leading zero omitted, Abs format (unit mm)*
G04 Created by KiCad (PCBNEW 5.1.9+dfsg1-1+deb11u1) date 2024-05-04 00:08:04*
%MOMM*%
%LPD*%
G01*
G04 APERTURE LIST*
%ADD10O,1.700000X1.700000*%
%ADD11R,1.700000X1.700000*%
%ADD12O,3.600000X2.080000*%
G04 APERTURE END LIST*
D10*
%TO.C,J7*%
X175260000Y-139700000D03*
D11*
X175260000Y-142240000D03*
%TD*%
%TO.C,J6*%
G36*
G01*
X178435000Y-137337800D02*
X178435000Y-134442200D01*
G75*
G02*
X178892200Y-133985000I457200J0D01*
G01*
X181787800Y-133985000D01*
G75*
G02*
X182245000Y-134442200I0J-457200D01*
G01*
X182245000Y-137337800D01*
G75*
G02*
X181787800Y-137795000I-457200J0D01*
G01*
X178892200Y-137795000D01*
G75*
G02*
X178435000Y-137337800I0J457200D01*
G01*
G37*
%TD*%
%TO.C,J5*%
G36*
G01*
X178435000Y-114477800D02*
X178435000Y-111582200D01*
G75*
G02*
X178892200Y-111125000I457200J0D01*
G01*
X181787800Y-111125000D01*
G75*
G02*
X182245000Y-111582200I0J-457200D01*
G01*
X182245000Y-114477800D01*
G75*
G02*
X181787800Y-114935000I-457200J0D01*
G01*
X178892200Y-114935000D01*
G75*
G02*
X178435000Y-114477800I0J457200D01*
G01*
G37*
%TD*%
D10*
%TO.C,J4*%
X185420000Y-139700000D03*
X185420000Y-142240000D03*
X182880000Y-139700000D03*
X182880000Y-142240000D03*
X180340000Y-139700000D03*
X180340000Y-142240000D03*
X177800000Y-139700000D03*
D11*
X177800000Y-142240000D03*
%TD*%
D10*
%TO.C,J3*%
X185420000Y-93980000D03*
X185420000Y-96520000D03*
X182880000Y-93980000D03*
X182880000Y-96520000D03*
X180340000Y-93980000D03*
X180340000Y-96520000D03*
X177800000Y-93980000D03*
D11*
X177800000Y-96520000D03*
%TD*%
D10*
%TO.C,J2*%
X182880000Y-104140000D03*
X180340000Y-104140000D03*
D11*
X177800000Y-104140000D03*
%TD*%
D12*
%TO.C,J1*%
X185420000Y-132080000D03*
X185420000Y-127000000D03*
X185420000Y-121920000D03*
G36*
G01*
X183869999Y-115800000D02*
X186970001Y-115800000D01*
G75*
G02*
X187220000Y-116049999I0J-249999D01*
G01*
X187220000Y-117630001D01*
G75*
G02*
X186970001Y-117880000I-249999J0D01*
G01*
X183869999Y-117880000D01*
G75*
G02*
X183620000Y-117630001I0J249999D01*
G01*
X183620000Y-116049999D01*
G75*
G02*
X183869999Y-115800000I249999J0D01*
G01*
G37*
%TD*%
M02*
